<?xml version="1.0" encoding="utf-8"?>
<!-- Generator: Adobe Illustrator 22.1.0, SVG Export Plug-In . SVG Version: 6.00 Build 0)  -->
<svg version="1.1" id="Camada_1" xmlns="http://www.w3.org/2000/svg" xmlns:xlink="http://www.w3.org/1999/xlink" x="0px" y="0px"
	 viewBox="0 0 153 49" style="enable-background:new 0 0 153 49;" xml:space="preserve">
<style type="text/css">
	.st0{fill:#FFFFFF;}
	.st1{fill:#FDFEFE;}
</style>
<g>
	<path d="M148.3,41.9c0,3.5-2.8,6.3-6.3,6.3H11.5c-3.5,0-6.3-2.8-6.3-6.3V7.7c0-3.5,2.8-6.3,6.3-6.3h130.5c3.5,0,6.3,2.8,6.3,6.3
		V41.9z"/>
	<g>
		<path class="st0" d="M42.5,32.3c-0.8,1.7-1.1,2.4-2.1,3.9c-1.4,2.1-3.3,4.7-5.7,4.7c-2.1,0-2.7-1.4-5.5-1.4
			c-2.9,0-3.5,1.4-5.6,1.4c-2.4,0-4.2-2.4-5.6-4.4c-3.8-5.8-4.2-12.6-1.9-16.2c1.7-2.6,4.3-4.1,6.8-4.1c2.5,0,4.1,1.4,6.2,1.4
			c2,0,3.3-1.4,6.2-1.4c2.2,0,4.5,1.2,6.2,3.3C36.1,22.5,36.9,30.3,42.5,32.3z"/>
		<g>
			<path class="st0" d="M33.1,13.9c1.1-1.4,1.9-3.3,1.6-5.2c-1.7,0.1-3.8,1.2-4.9,2.7c-1.1,1.3-2,3.2-1.6,5.1
				C30,16.5,32,15.4,33.1,13.9z"/>
		</g>
	</g>
	<g>
		<g>
			<path class="st0" d="M54,20.2l-5.5,16.1h2.5l1.6-4.9H58l1.7,4.9h2.6l-5.5-16.1H54z M55.3,22.9c0.2,0.7,0.4,1.5,0.6,2.3l1.5,4.3
				h-4.2l1.4-4.3C54.9,24.4,55.1,23.7,55.3,22.9z"/>
			<path class="st0" d="M69.3,24.4c-1.7,0-3,0.6-3.9,1.9l-0.1-1.6h-2.2l0,0.2c0.1,1,0.1,2.1,0.1,3.7v12.4h2.4v-5.8
				c0.8,0.9,2,1.4,3.3,1.4c1.4,0,2.7-0.6,3.7-1.6c1.1-1.1,1.6-2.7,1.6-4.7c0-1.7-0.5-3.2-1.4-4.3C72,25,70.7,24.4,69.3,24.4z
				 M68.7,26.4c2.2,0,3.1,2,3.1,4c0,2.6-1.2,4.2-3.2,4.2c-1.4,0-2.5-0.9-2.9-2.3c-0.1-0.2-0.1-0.5-0.1-0.8v-2c0-0.2,0-0.4,0.1-0.6
				c0-0.1,0-0.1,0-0.2C66.1,27.4,67.3,26.4,68.7,26.4z"/>
			<path class="st0" d="M81.8,24.4c-1.7,0-3,0.6-3.9,1.9l-0.1-1.6h-2.2l0,0.2c0.1,1,0.1,2.1,0.1,3.7v12.4h2.4v-5.8
				c0.8,0.9,2,1.4,3.3,1.4c1.4,0,2.7-0.6,3.7-1.6c1.1-1.1,1.6-2.7,1.6-4.7c0-1.7-0.5-3.2-1.4-4.3C84.5,25,83.2,24.4,81.8,24.4z
				 M81.2,26.4c2.2,0,3.1,2,3.1,4c0,2.6-1.2,4.2-3.2,4.2c-1.4,0-2.5-0.9-2.9-2.3c-0.1-0.2-0.1-0.5-0.1-0.8v-2c0-0.2,0-0.4,0.1-0.6
				c0-0.1,0-0.1,0-0.2C78.6,27.4,79.8,26.4,81.2,26.4z"/>
			<path class="st0" d="M97.5,27c-2.3-0.9-3-1.6-3-2.8c0-1.1,0.9-2.2,2.8-2.2c1.6,0,2.6,0.5,2.9,0.7l0.2,0.1l0.7-2l-0.1-0.1
				c-0.4-0.2-1.6-0.8-3.5-0.8c-3.1,0-5.3,1.8-5.3,4.4c0,2.1,1.4,3.6,4.3,4.6c2.1,0.8,2.8,1.6,2.8,2.9c0,1.5-1.2,2.5-3.1,2.5
				c-1.2,0-2.5-0.4-3.5-1l-0.2-0.1l-0.7,2.1l0.1,0.1c0.9,0.6,2.6,1.1,4.1,1.1c4.2,0,5.7-2.5,5.7-4.7C101.6,29.6,100.4,28.2,97.5,27z
				"/>
			<path class="st0" d="M105.9,21.9l-2.4,0.7v2h-1.7v1.9h1.7v5.9c0,1.4,0.3,2.4,0.8,3.1c0.5,0.6,1.4,0.9,2.3,0.9
				c0.9,0,1.6-0.2,1.9-0.3l0.1,0l-0.1-1.9l-0.2,0.1c-0.3,0.1-0.6,0.1-1.1,0.1c-0.9,0-1.3-0.6-1.3-2v-5.9h2.9v-1.9h-2.9V21.9z"/>
			<path class="st0" d="M114.9,24.4c-3.4,0-5.8,2.5-5.8,6.2c0,3.5,2.3,6,5.6,6h0c2.8,0,5.8-1.9,5.8-6.2c0-1.7-0.5-3.2-1.5-4.3
				C117.9,25,116.5,24.4,114.9,24.4z M114.8,26.3c2.2,0,3.2,2.1,3.2,4.1c0,2.4-1.4,4.2-3.2,4.2h0c-1.8,0-3.2-1.7-3.2-4.1
				C111.6,28.4,112.6,26.3,114.8,26.3z"/>
			<path class="st0" d="M127.9,24.5l-0.1,0c-0.2-0.1-0.4-0.1-0.6-0.1c-1.3,0-2.4,0.7-3,2l-0.1-1.7h-2.2l0,0.2c0.1,1,0.1,2,0.1,3.5
				l0,7.9h2.4v-6.2c0-0.3,0-0.7,0.1-0.9c0.3-1.5,1.3-2.4,2.6-2.4c0.2,0,0.4,0,0.7,0l0.3,0V24.5z"/>
			<path class="st0" d="M133.4,24.4c-3.2,0-5.5,2.6-5.5,6.3c0,3.6,2.2,5.9,5.7,5.9c1.8,0,3.1-0.4,3.8-0.7l0.1-0.1l-0.5-1.8l-0.2,0.1
				c-0.7,0.3-1.5,0.5-3,0.5c-1.1,0-3.5-0.3-3.6-3.5l7.8,0l0-0.2c0-0.2,0.1-0.6,0.1-1C138.2,27.3,136.9,24.4,133.4,24.4z M133.2,26.2
				c0.7,0,1.3,0.2,1.8,0.7c0.7,0.7,0.8,1.8,0.8,2.3h-5.5C130.5,27.7,131.4,26.2,133.2,26.2z"/>
		</g>
	</g>
</g>
<g>
	<path class="st1" d="M51.1,8.7c0.5-0.1,1-0.1,1.6-0.1c1.1,0,1.8,0.2,2.4,0.7c0.5,0.5,0.8,1.1,0.8,2.1c0,0.9-0.3,1.7-0.8,2.3
		c-0.5,0.5-1.4,0.8-2.6,0.8c-0.5,0-1,0-1.4-0.1V8.7z M51.8,13.9c0.2,0,0.5,0,0.8,0c1.6,0,2.5-0.9,2.5-2.5c0-1.4-0.8-2.2-2.4-2.2
		c-0.4,0-0.7,0-0.9,0.1V13.9z"/>
	<path class="st1" d="M57.5,8.7v5.8h-0.8V8.7H57.5z"/>
	<path class="st1" d="M58.8,13.6c0.3,0.2,0.8,0.4,1.3,0.4c0.8,0,1.2-0.4,1.2-1c0-0.5-0.3-0.9-1.1-1.2c-0.9-0.3-1.5-0.8-1.5-1.6
		c0-0.9,0.8-1.6,1.9-1.6c0.6,0,1,0.1,1.3,0.3l-0.2,0.6c-0.2-0.1-0.6-0.3-1.1-0.3c-0.8,0-1.1,0.5-1.1,0.9c0,0.5,0.4,0.8,1.2,1.1
		c1,0.4,1.5,0.9,1.5,1.7c0,0.9-0.7,1.7-2,1.7c-0.6,0-1.2-0.2-1.5-0.4L58.8,13.6z"/>
	<path class="st1" d="M63.1,8.7c0.4-0.1,0.8-0.1,1.4-0.1c0.7,0,1.3,0.2,1.6,0.5c0.3,0.3,0.5,0.7,0.5,1.2c0,0.5-0.2,0.9-0.4,1.2
		c-0.4,0.4-1,0.6-1.8,0.6c-0.2,0-0.4,0-0.6-0.1v2.3h-0.8V8.7z M63.9,11.5c0.2,0,0.4,0.1,0.6,0.1c0.9,0,1.5-0.4,1.5-1.2
		c0-0.8-0.5-1.1-1.4-1.1c-0.3,0-0.6,0-0.7,0.1V11.5z"/>
	<path class="st1" d="M72.7,11.5c0,2-1.2,3.1-2.7,3.1c-1.5,0-2.6-1.2-2.6-2.9c0-1.8,1.1-3.1,2.7-3.1C71.6,8.6,72.7,9.8,72.7,11.5z
		 M68.1,11.6c0,1.2,0.7,2.4,1.9,2.4c1.2,0,1.9-1.1,1.9-2.4c0-1.2-0.6-2.4-1.9-2.4C68.8,9.2,68.1,10.3,68.1,11.6z"/>
	<path class="st1" d="M73.6,14.5V8.7h0.8l1.9,2.9c0.4,0.7,0.8,1.3,1,1.9l0,0c-0.1-0.8-0.1-1.5-0.1-2.4V8.7H78v5.8h-0.8l-1.8-2.9
		c-0.4-0.6-0.8-1.3-1.1-1.9l0,0c0,0.7,0.1,1.4,0.1,2.4v2.5H73.6z"/>
	<path class="st1" d="M80.9,7.3l-1.1,1h-0.6l0.8-1H80.9z M80,8.7v5.8h-0.8V8.7H80z"/>
	<path class="st1" d="M82.6,14.5l-1.9-5.8h0.8l0.9,2.9c0.2,0.8,0.5,1.5,0.6,2.2h0c0.2-0.7,0.4-1.4,0.7-2.2l1-2.9h0.8l-2.1,5.8H82.6z
		"/>
	<path class="st1" d="M89.2,11.8h-2.3v2.1h2.5v0.6h-3.3V8.7h3.1v0.6h-2.4v1.8h2.3V11.8z"/>
	<path class="st1" d="M90.4,8.7h0.8v5.2h2.5v0.6h-3.2V8.7z"/>
	<path class="st1" d="M96.3,14.5V8.7h0.8l1.9,2.9c0.4,0.7,0.8,1.3,1,1.9l0,0c-0.1-0.8-0.1-1.5-0.1-2.4V8.7h0.7v5.8h-0.8l-1.8-2.9
		c-0.4-0.6-0.8-1.3-1.1-1.9l0,0C97,10.3,97,11,97,12v2.5H96.3z"/>
	<path class="st1" d="M102.9,12.6l-0.6,1.8h-0.8l2-5.8h0.9l2,5.8h-0.8l-0.6-1.8H102.9z M104.8,12.1l-0.6-1.7
		c-0.1-0.4-0.2-0.7-0.3-1.1h0c-0.1,0.3-0.2,0.7-0.3,1.1l-0.6,1.7H104.8z"/>
</g>
<g>
</g>
<g>
</g>
<g>
</g>
<g>
</g>
<g>
</g>
<g>
</g>
</svg>
